HIERARCHY
ROOT Hips
{
	OFFSET 0.000000 8.830580 0.000000
	CHANNELS 6 Xposition Yposition Zposition Zrotation Yrotation Xrotation 
	JOINT Spine
	{
		OFFSET 0.000000 0.010000 0.000000
		CHANNELS 3 Zrotation Yrotation Xrotation
		JOINT Spine1
		{
			OFFSET 0.000000 2.459130 0.000000
			CHANNELS 3 Zrotation Yrotation Xrotation
			JOINT Neck
			{
				OFFSET 0.000000 2.484630 0.000000
				CHANNELS 3 Zrotation Yrotation Xrotation
				JOINT Head_virtual
				{
					OFFSET 0.000000 0.000000 0.000000
					CHANNELS 3 Zrotation Yrotation Xrotation
					JOINT Head
					{
						OFFSET 0.000000 0.927525 0.000000
						CHANNELS 3 Zrotation Yrotation Xrotation
						End Site
						{
							OFFSET 0.000000 0.000000 0.000000
						}
					}
				}
				JOINT LeftUpArm_virtual
				{
					OFFSET 0.000000 0.000000 0.000000
					CHANNELS 3 Zrotation Yrotation Xrotation
					JOINT LeftUpArm
					{
						OFFSET 1.248820 0.000000 0.000000
						CHANNELS 3 Zrotation Yrotation Xrotation
						JOINT LeftForeArm
						{
							OFFSET 2.597580 0.000000 0.000000
							CHANNELS 3 Zrotation Yrotation Xrotation
							JOINT LeftHand
							{
								OFFSET 2.455420 0.000000 0.000000
								CHANNELS 3 Zrotation Yrotation Xrotation
								End Site
								{
									OFFSET 0.000000 0.000000 0.000000
								}
							}
						}
					}
				}
				JOINT RightUpArm_virtual
				{
					OFFSET -0.000000 -0.000000 -0.000000
					CHANNELS 3 Zrotation Yrotation Xrotation
					JOINT RightUpArm
					{
						OFFSET -1.248820 -0.000000 -0.000000
						CHANNELS 3 Zrotation Yrotation Xrotation
						JOINT RightForeArm
						{
							OFFSET -2.597580 -0.000000 -0.000000
							CHANNELS 3 Zrotation Yrotation Xrotation
							JOINT RightHand
							{
								OFFSET -2.455420 -0.000000 -0.000000
								CHANNELS 3 Zrotation Yrotation Xrotation
								End Site
								{
									OFFSET 0.000000 0.000000 0.000000
								}
							}
						}
					}
				}
			}
		}
	}
	JOINT LeftUpLeg
	{
		OFFSET 1.271939 0.000000 0.000000
		CHANNELS 3 Zrotation Yrotation Xrotation
		JOINT LeftLowLeg
		{
			OFFSET 0.000000 -4.342910 0.000000
			CHANNELS 3 Zrotation Yrotation Xrotation
			JOINT LeftFoot
			{
				OFFSET 0.000000 -4.487670 0.000000
				CHANNELS 3 Zrotation Yrotation Xrotation
				JOINT LeftToeBase
				{
					OFFSET 0.000000 0.000000 1.515070
					CHANNELS 3 Zrotation Yrotation Xrotation
					End Site
					{
						OFFSET 0.000000 0.000000 0.000000
					}
				}
			}
		}
	}
	JOINT RightUpLeg
	{
		OFFSET -1.271939 0.000000 0.000000
		CHANNELS 3 Zrotation Yrotation Xrotation
		JOINT RightLowLeg
		{
			OFFSET 0.000000 -4.342910 0.000000
			CHANNELS 3 Zrotation Yrotation Xrotation
			JOINT RightFoot
			{
				OFFSET 0.000000 -4.487670 0.000000
				CHANNELS 3 Zrotation Yrotation Xrotation
				JOINT RightToeBase
				{
					OFFSET 0.000000 0.000000 1.515070
					CHANNELS 3 Zrotation Yrotation Xrotation
					End Site
					{
						OFFSET 0.000000 0.000000 0.000000
					}
				}
			}
		}
	}
}
MOTION
Frames: 7
Frame Time: 0.041667
-13.087311 8.900066 24.760255 77.653733 -87.761068 -76.780225 -0.508101 -2.619762 -14.516604 -4.544057 4.628242 18.735957 0.000000 0.000000 0.000000 20.515326 1.369138 17.866327 -8.849583 -11.335957 -85.091387 -23.966600 4.817430 5.621002 -47.200802 -11.153400 4.410500 0.000000 -18.368700 0.000000 22.949100 17.173000 3.498030 29.643801 -6.609650 3.096008 46.396301 2.562190 1.894012 0.000000 21.073099 0.000000 6.058770 -10.058000 -16.675100 -5.166448 -1.745961 0.204724 0.000000 0.000000 17.503599 -2.427267 16.277753 -1.465977 0.000000 0.000000 -34.076000 -1.607892 24.656433 -4.898020 0.000000 0.000000 26.863400 37.625249 -6.066225 -19.041496 0.000000 0.000000 -14.967979 
-13.094531 8.899767 24.752655 79.038449 -87.801531 -77.989232 -0.452751 -2.577811 -14.749964 -4.632944 4.609312 18.723194 0.000000 0.000000 0.000000 20.536245 1.384284 17.862961 -8.844651 -11.300282 -85.083314 -23.916700 4.758240 5.609985 -47.127201 -11.193400 4.588350 0.000000 -18.629299 0.000000 22.755501 17.226601 4.342140 29.728800 -6.601790 3.161011 46.363400 2.677280 1.830994 0.000000 21.209801 0.000000 5.987780 -10.148700 -16.677000 -5.103857 -1.791015 0.055884 0.000000 0.000000 17.553301 -2.481443 16.373239 -1.534651 0.000000 0.000000 -34.004601 -1.601551 24.636395 -5.039904 0.000000 0.000000 26.832001 37.538722 -6.061257 -19.015852 0.000000 0.000000 -14.938607 
-13.104174 8.899113 24.744985 80.493922 -87.855744 -79.407104 -0.460601 -2.631815 -14.869044 -4.554412 4.583072 18.707928 0.000000 0.000000 0.000000 20.501506 1.399052 17.868176 -8.888096 -11.317386 -85.056861 -23.945200 4.801900 5.623993 -47.127800 -11.293300 4.665990 0.000000 -18.745701 0.000000 22.709700 17.323000 5.178430 29.698299 -6.558860 3.239990 46.328300 2.752670 1.852997 0.000000 21.354000 0.000000 5.960230 -10.124000 -16.789600 -5.072384 -2.116024 0.106010 0.000000 0.000000 17.519800 -2.653235 16.704399 -1.632091 0.000000 0.000000 -33.990801 -1.512006 24.629851 -4.990730 0.000000 0.000000 26.757999 37.470158 -6.037196 -18.996057 0.000000 0.000000 -14.925734 
-13.108928 8.897840 24.734838 77.115962 -87.933774 -76.040049 -0.481289 -2.775631 -14.814377 -4.432043 4.484632 18.581262 0.000000 0.000000 0.000000 20.525060 1.362412 17.884938 -8.923819 -11.326467 -85.075643 -23.998100 4.835840 5.657990 -47.100498 -11.374400 4.668770 0.000000 -18.896999 0.000000 23.656799 16.659401 6.427900 29.695700 -6.539910 3.252014 46.278702 2.807520 1.865997 0.000000 21.486300 0.000000 6.014360 -10.104800 -16.708500 -4.945164 -2.377014 -0.023538 0.000000 0.000000 17.854000 -2.765182 16.886103 -1.826684 0.000000 0.000000 -33.873899 -1.317348 24.506253 -4.886880 0.000000 0.000000 26.673700 37.393321 -6.082531 -18.988155 0.000000 0.000000 -14.894308 
-13.119044 8.897909 24.725864 78.826735 -87.993727 -77.706168 -0.480302 -2.772772 -14.991463 -4.364018 4.510654 18.665136 0.000000 0.000000 0.000000 20.560457 1.336019 17.828002 -8.908170 -11.289872 -85.072082 -23.956400 4.767050 5.640991 -47.131802 -11.397500 4.809530 0.000000 -18.935801 0.000000 23.214300 16.688000 4.500700 29.700500 -6.575960 3.174011 46.272301 2.864500 1.963989 0.000000 21.637699 0.000000 5.920060 -10.110000 -16.542000 -4.888149 -2.567993 0.010701 0.000000 0.000000 17.827999 -3.081598 17.067807 -1.968529 0.000000 0.000000 -33.819901 -1.214102 24.525433 -4.817600 0.000000 0.000000 26.548599 37.327667 -6.090725 -18.967423 0.000000 0.000000 -14.877781 
-13.122912 8.895913 24.715432 72.925465 -88.089667 -71.839761 -0.450176 -2.931803 -14.875519 -4.304687 4.352091 18.513111 0.000000 0.000000 0.000000 20.597745 1.321870 17.811861 -8.932828 -11.251878 -85.066883 -23.946899 4.759700 5.542999 -47.181999 -11.307400 4.812110 0.000000 -18.926500 0.000000 23.164101 16.640499 4.731260 29.712099 -6.558490 3.165009 46.253899 2.913600 2.046997 0.000000 21.794001 0.000000 5.876020 -10.070400 -16.707300 -4.758670 -3.166006 -0.143944 0.000000 0.000000 18.257401 -3.287253 17.479972 -2.255715 0.000000 0.000000 -33.659000 -0.958832 24.344220 -4.677966 0.000000 0.000000 26.456600 37.226892 -6.181755 -18.969577 0.000000 0.000000 -14.820235 
-13.132403 8.894916 24.708464 75.620175 -88.191305 -74.467283 -0.494947 -3.064641 -14.982929 -4.033740 4.317263 18.420538 0.000000 0.000000 0.000000 20.436265 1.426863 17.905246 -8.882938 -11.386736 -85.086903 -24.109400 4.892070 5.619995 -47.217701 -11.383000 4.700720 0.000000 -18.857401 0.000000 23.130800 16.637501 4.850930 29.574301 -6.459780 3.260010 46.217800 2.954680 2.084015 0.000000 21.945601 0.000000 5.775720 -10.021700 -16.498899 -4.721846 -3.564990 -0.150748 0.000000 0.000000 18.291800 -3.180432 18.016128 -2.290352 0.000000 0.000000 -33.671499 -0.868217 24.310765 -4.685369 0.000000 0.000000 26.398800 37.136773 -6.126993 -18.905552 0.000000 0.000000 -14.819989 
